<svg width="172" height="50" viewBox="0 0 172 50" fill="none" xmlns="http://www.w3.org/2000/svg">
<path d="M0 0H7.57576V50H0V0Z" fill="white"/>
<path d="M53.6362 42.4243L53.6362 50.0001L7.57563 50.0001L7.57563 42.4243L53.6362 42.4243Z" fill="white"/>
<path fill-rule="evenodd" clip-rule="evenodd" d="M13.6362 7.1543L31.0826 24.6007L31.0854 24.5979L31.1935 24.706L48.4847 7.41472V35.7576H53.6362V0H48.709H48.4847V0.224313L31.1907 17.5183L13.6723 0L13.6362 0.0361068V7.1543Z" fill="#0AB3AC"/>
<path d="M69.3645 20.888H72.9485V23H66.6285V11.768H69.3645V20.888ZM80.1415 11.768V18.488C80.1415 19.16 80.3068 19.6773 80.6375 20.04C80.9681 20.4027 81.4535 20.584 82.0935 20.584C82.7335 20.584 83.2241 20.4027 83.5655 20.04C83.9068 19.6773 84.0775 19.16 84.0775 18.488V11.768H86.8135V18.472C86.8135 19.4747 86.6001 20.3227 86.1735 21.016C85.7468 21.7093 85.1708 22.232 84.4455 22.584C83.7308 22.936 82.9308 23.112 82.0455 23.112C81.1601 23.112 80.3655 22.9413 79.6615 22.6C78.9681 22.248 78.4188 21.7253 78.0135 21.032C77.6081 20.328 77.4055 19.4747 77.4055 18.472V11.768H80.1415ZM94.6707 11.768V23H91.9347V11.768H94.6707ZM103.917 23.112C103.096 23.112 102.36 22.9787 101.709 22.712C101.059 22.4453 100.536 22.0507 100.141 21.528C99.7575 21.0053 99.5548 20.376 99.5335 19.64H102.445C102.488 20.056 102.632 20.376 102.877 20.6C103.123 20.8133 103.443 20.92 103.837 20.92C104.243 20.92 104.563 20.8293 104.797 20.648C105.032 20.456 105.149 20.1947 105.149 19.864C105.149 19.5867 105.053 19.3573 104.861 19.176C104.68 18.9947 104.451 18.8453 104.173 18.728C103.907 18.6107 103.523 18.4773 103.021 18.328C102.296 18.104 101.704 17.88 101.245 17.656C100.787 17.432 100.392 17.1013 100.061 16.664C99.7308 16.2267 99.5655 15.656 99.5655 14.952C99.5655 13.9067 99.9441 13.0907 100.701 12.504C101.459 11.9067 102.445 11.608 103.661 11.608C104.899 11.608 105.896 11.9067 106.653 12.504C107.411 13.0907 107.816 13.912 107.869 14.968H104.909C104.888 14.6053 104.755 14.3227 104.509 14.12C104.264 13.9067 103.949 13.8 103.565 13.8C103.235 13.8 102.968 13.8907 102.765 14.072C102.563 14.2427 102.461 14.4933 102.461 14.824C102.461 15.1867 102.632 15.4693 102.973 15.672C103.315 15.8747 103.848 16.0933 104.573 16.328C105.299 16.5733 105.885 16.808 106.333 17.032C106.792 17.256 107.187 17.5813 107.517 18.008C107.848 18.4347 108.013 18.984 108.013 19.656C108.013 20.296 107.848 20.8773 107.517 21.4C107.197 21.9227 106.728 22.3387 106.109 22.648C105.491 22.9573 104.76 23.112 103.917 23.112ZM79.3485 33.768V45H76.6125V38.264L74.1005 45H71.8925L69.3645 38.248V45H66.6285V33.768H69.8605L73.0125 41.544L76.1325 33.768H79.3485ZM91.508 43.016H87.316L86.644 45H83.78L87.844 33.768H91.012L95.076 45H92.18L91.508 43.016ZM90.804 40.904L89.412 36.792L88.036 40.904H90.804ZM105.241 45L102.905 40.76H102.249V45H99.5129V33.768H104.105C104.99 33.768 105.742 33.9227 106.361 34.232C106.99 34.5413 107.46 34.968 107.769 35.512C108.078 36.0453 108.233 36.6427 108.233 37.304C108.233 38.0507 108.02 38.7173 107.593 39.304C107.177 39.8907 106.558 40.3067 105.737 40.552L108.329 45H105.241ZM102.249 38.824H103.945C104.446 38.824 104.82 38.7013 105.065 38.456C105.321 38.2107 105.449 37.864 105.449 37.416C105.449 36.9893 105.321 36.6533 105.065 36.408C104.82 36.1627 104.446 36.04 103.945 36.04H102.249V38.824ZM121.15 46.92L119.71 44.984C119.284 45.0693 118.868 45.112 118.462 45.112C117.406 45.112 116.436 44.8667 115.55 44.376C114.676 43.8853 113.977 43.2027 113.454 42.328C112.942 41.4427 112.686 40.4507 112.686 39.352C112.686 38.2533 112.942 37.2667 113.454 36.392C113.977 35.5173 114.676 34.8347 115.55 34.344C116.436 33.8533 117.406 33.608 118.462 33.608C119.518 33.608 120.484 33.8533 121.358 34.344C122.244 34.8347 122.937 35.5173 123.438 36.392C123.95 37.2667 124.206 38.2533 124.206 39.352C124.206 40.312 124.009 41.192 123.614 41.992C123.23 42.7813 122.692 43.4373 121.998 43.96L124.462 46.92H121.15ZM115.486 39.352C115.486 40.344 115.753 41.1387 116.286 41.736C116.83 42.3227 117.556 42.616 118.462 42.616C119.358 42.616 120.073 42.3173 120.606 41.72C121.15 41.1227 121.422 40.3333 121.422 39.352C121.422 38.36 121.15 37.5707 120.606 36.984C120.073 36.3867 119.358 36.088 118.462 36.088C117.556 36.088 116.83 36.3813 116.286 36.968C115.753 37.5547 115.486 38.3493 115.486 39.352ZM131.648 33.768V40.488C131.648 41.16 131.813 41.6773 132.144 42.04C132.474 42.4027 132.96 42.584 133.6 42.584C134.24 42.584 134.73 42.4027 135.072 42.04C135.413 41.6773 135.584 41.16 135.584 40.488V33.768H138.32V40.472C138.32 41.4747 138.106 42.3227 137.68 43.016C137.253 43.7093 136.677 44.232 135.952 44.584C135.237 44.936 134.437 45.112 133.552 45.112C132.666 45.112 131.872 44.9413 131.168 44.6C130.474 44.248 129.925 43.7253 129.52 43.032C129.114 42.328 128.912 41.4747 128.912 40.472V33.768H131.648ZM146.177 35.96V38.232H149.841V40.344H146.177V42.808H150.321V45H143.441V33.768H150.321V35.96H146.177ZM159.361 45.112C158.54 45.112 157.804 44.9787 157.153 44.712C156.503 44.4453 155.98 44.0507 155.585 43.528C155.201 43.0053 154.999 42.376 154.977 41.64H157.889C157.932 42.056 158.076 42.376 158.321 42.6C158.567 42.8133 158.887 42.92 159.281 42.92C159.687 42.92 160.007 42.8293 160.241 42.648C160.476 42.456 160.593 42.1947 160.593 41.864C160.593 41.5867 160.497 41.3573 160.305 41.176C160.124 40.9947 159.895 40.8453 159.617 40.728C159.351 40.6107 158.967 40.4773 158.465 40.328C157.74 40.104 157.148 39.88 156.689 39.656C156.231 39.432 155.836 39.1013 155.505 38.664C155.175 38.2267 155.009 37.656 155.009 36.952C155.009 35.9067 155.388 35.0907 156.145 34.504C156.903 33.9067 157.889 33.608 159.105 33.608C160.343 33.608 161.34 33.9067 162.097 34.504C162.855 35.0907 163.26 35.912 163.313 36.968H160.353C160.332 36.6053 160.199 36.3227 159.953 36.12C159.708 35.9067 159.393 35.8 159.009 35.8C158.679 35.8 158.412 35.8907 158.209 36.072C158.007 36.2427 157.905 36.4933 157.905 36.824C157.905 37.1867 158.076 37.4693 158.417 37.672C158.759 37.8747 159.292 38.0933 160.017 38.328C160.743 38.5733 161.329 38.808 161.777 39.032C162.236 39.256 162.631 39.5813 162.961 40.008C163.292 40.4347 163.457 40.984 163.457 41.656C163.457 42.296 163.292 42.8773 162.961 43.4C162.641 43.9227 162.172 44.3387 161.553 44.648C160.935 44.9573 160.204 45.112 159.361 45.112Z" fill="white"/>
</svg>
